<?xml version="1.0" encoding="utf-8"?>
<!-- Generator: Adobe Illustrator 22.0.1, SVG Export Plug-In . SVG Version: 6.00 Build 0)  -->
<svg version="1.1" id="Capa_1" xmlns="http://www.w3.org/2000/svg" xmlns:xlink="http://www.w3.org/1999/xlink" x="0px" y="0px"
	 viewBox="0 0 355.5 90" style="enable-background:new 0 0 355.5 90;" xml:space="preserve">
<style type="text/css">
	.st0{fill:#7EB29C;}
	.st1{fill:#026666;}
</style>
<path d="M150.4,28.8C150.4,13,163.3,0,179.2,0S208,12.9,208,28.8s-12.8,28.8-28.8,28.8C163.3,57.5,150.4,44.7,150.4,28.8z"/>
<path d="M28.1,28.8C28.1,13,41,0,56.9,0c15.9,0.1,28.8,13,28.8,28.8s-13,28.7-28.8,28.7S28.1,44.7,28.1,28.8z"/>
<path d="M241,28.9c0-15.8,12.9-28.8,28.8-28.8s28.8,12.9,28.8,28.8s-12.9,28.7-28.8,28.7C254,57.5,241,44.7,241,28.9z"/>
<g>
	<path d="M0,6.9h10.4c7.1,0,10.2,3.3,10.2,10.1v1.7c0,4.5-1.3,7.3-4.4,8.6v0.1c3.7,1.3,5.1,4.5,5.1,9.1v3.8
		c0,6.7-3.6,10.4-10.5,10.4H0V6.9z M9.5,24.7c2.6,0,4.1-1.2,4.1-4.6v-2.4c0-3.2-1.1-4.5-3.5-4.5H6.9v11.5H9.5z M10.8,44.5
		c2.3,0,3.6-1.1,3.6-4.3v-3.8c0-4-1.3-5.3-4.4-5.3H7v13.5h3.8V44.5z"/>
</g>
<g>
	<path d="M94,6.9h10.2c7.1,0,10.2,3.3,10.2,10.1v2.7c0,4.5-1.4,7.4-4.5,8.7v0.1c3.5,1.1,4.5,4.3,4.5,9.2v7.7c0,2.1,0.1,3.7,0.8,5.3
		h-7c-0.4-1.2-0.7-1.8-0.7-5.4v-8c0-4-1.2-5.4-4.3-5.4h-2.4v18.8h-6.9V6.9H94z M103.4,25.7c2.6,0,4.1-1.2,4.1-4.6v-3.4
		c0-3.2-1.1-4.5-3.5-4.5h-3.2v12.5H103.4z"/>
</g>
<g>
	<path d="M122.7,6.9h10.2c7.1,0,10.2,3.3,10.2,10.1v2.7c0,4.5-1.4,7.4-4.5,8.7v0.1c3.5,1.1,4.5,4.3,4.5,9.2v7.7
		c0,2.1,0.1,3.7,0.8,5.3h-7c-0.4-1.2-0.7-1.8-0.7-5.4v-8c0-4-1.2-5.4-4.3-5.4h-2.4v18.8h-6.9L122.7,6.9L122.7,6.9z M132.1,25.7
		c2.6,0,4.1-1.2,4.1-4.6v-3.4c0-3.2-1.1-4.5-3.5-4.5h-3.2v12.5H132.1z"/>
</g>
<g>
	<path d="M214.3,40.3v-2.5h6.5v3c0,3.2,1.3,4.2,3.6,4.2c2.2,0,3.6-1.2,3.6-4.4c0-3.7-1.3-6-5.9-9.9c-5.8-5.1-7.6-8.7-7.6-13.7
		c0-6.9,3.6-10.9,10.3-10.9s9.9,4.1,9.9,11.1V19h-6.5v-2.2c0-3.2-1.3-4.3-3.5-4.3s-3.5,1.2-3.5,4.2c0,3.2,1.4,5.5,6,9.4
		c5.8,5.1,7.6,8.6,7.6,14.1c0,7.1-3.7,11.2-10.4,11.2C217.8,51.3,214.3,47.3,214.3,40.3z"/>
</g>
<path class="st0" d="M85.6,48.2c0-5.2-4.1-9.3-9.3-9.3S67,43.1,67,48.2c0,5.2,4.2,9.3,9.3,9.3l0,0h9.3L85.6,48.2L85.6,48.2
	L85.6,48.2z"/>
<g>
	<g>
		<path class="st0" d="M320.2,22.8v13.9c0,2.2-0.7,3.9-2.2,5.3c-1.4,1.3-3.4,2-5.8,2c-2.3,0-4.4-0.7-6.4-2l1.4-2.4
			c1.5,1.1,3.1,1.7,4.8,1.7c1.5,0,2.6-0.4,3.5-1.2s1.3-1.9,1.3-3.2V35c-1.1,1.7-2.8,2.6-5.1,2.6c-2.1,0-3.8-0.7-5-2.1
			c-1.3-1.4-1.9-3.2-1.9-5.4s0.6-3.9,1.9-5.3c1.3-1.3,2.9-2,4.9-2c2.4,0,4.1,0.8,5.2,2.6v-2.5L320.2,22.8L320.2,22.8z M312.5,34.9
			c1.3,0,2.4-0.4,3.2-1.3c0.8-0.9,1.2-2,1.2-3.4s-0.4-2.5-1.2-3.4c-0.8-0.9-1.9-1.3-3.2-1.3c-1.3,0-2.4,0.4-3.2,1.3
			c-0.8,0.9-1.3,2-1.3,3.4s0.4,2.5,1.3,3.4C310.1,34.4,311.2,34.9,312.5,34.9z"/>
		<path class="st0" d="M327,22.8v3.1c1.1-2.1,2.8-3.2,5.3-3.2v3.2c-1.5-0.1-2.8,0.3-3.7,1.1s-1.5,1.9-1.6,3.2v8h-3.4V22.8H327z"/>
		<path class="st0" d="M343.7,38.2v-1.9c-1.1,1.3-2.8,2-5.1,2c-1.6,0-3-0.4-3.9-1.3c-1-0.9-1.5-2-1.5-3.4s0.5-2.5,1.5-3.4
			s2.4-1.3,4.3-1.3h4.7v-0.5c0-1-0.3-1.7-0.9-2.3c-0.6-0.5-1.5-0.8-2.7-0.8c-1.5,0-3,0.5-4.5,1.6l-1.4-2.3c1.2-0.7,2.2-1.2,3.2-1.5
			c0.9-0.3,2.1-0.4,3.5-0.4c2,0,3.5,0.5,4.6,1.4c1.1,1,1.6,2.3,1.6,4v10.1C347.1,38.2,343.7,38.2,343.7,38.2z M339.2,35.7
			c1.2,0,2.2-0.3,3-0.8s1.3-1.2,1.4-2.1v-1.4h-4.2c-1.1,0-1.9,0.2-2.4,0.5c-0.5,0.3-0.8,0.8-0.8,1.6c0,0.7,0.3,1.2,0.8,1.7
			C337.6,35.5,338.4,35.7,339.2,35.7z M341.4,21.6h-3l3.1-4.3l3.4,1.4L341.4,21.6z"/>
		<path class="st0" d="M355.7,31.6h-7.1v-2.3h7.1V31.6z"/>
		<path class="st0" d="M307,55.2v-1.5c0-1.7,0.5-3,1.6-3.9s2.3-1.4,3.7-1.4c1.1,0,2.1,0.2,2.9,0.7l-0.1,2.9c-1-0.4-1.9-0.7-2.7-0.7
			c-1.4,0-2.1,0.7-2.1,2.1v1.8h4v2.5h-4v12.4H307V57.7h-2v-2.5H307z M319.2,51.7c-0.4,0.4-0.8,0.6-1.4,0.6s-1-0.2-1.4-0.6
			c-0.4-0.4-0.5-0.9-0.5-1.4c0-0.6,0.2-1.1,0.5-1.5c0.4-0.4,0.8-0.6,1.4-0.6s1,0.2,1.4,0.6c0.4,0.4,0.5,0.9,0.5,1.5
			C319.7,50.8,319.7,51.3,319.2,51.7z M316.2,54.7h3.3v15.4h-3.3V54.7z"/>
		<path class="st0" d="M328.7,63.4h-7.1v-2.3h7.1V63.4z"/>
		<path class="st0" d="M312.6,74.4c2.8,0,4.9,0.8,6.4,2.5l-1.8,2.1c-1.2-1.2-2.6-1.8-4.4-1.7c-1.3,0-2.4,0.5-3.3,1.4
			s-1.3,2.1-1.3,3.5s0.4,2.6,1.3,3.5s2,1.4,3.3,1.4c2,0,3.5-0.6,4.5-1.9l1.9,1.9c-1.4,1.9-3.6,2.9-6.5,2.9c-2.3,0-4.2-0.7-5.6-2.2
			c-1.4-1.4-2.2-3.3-2.2-5.6c0-2.3,0.7-4.2,2.2-5.7C308.5,75.1,310.2,74.4,312.6,74.4z"/>
		<path class="st0" d="M328.6,74.4c2.4,0,4.3,0.7,5.8,2.2c1.5,1.4,2.2,3.3,2.2,5.7c0,2.3-0.7,4.2-2.2,5.6s-3.4,2.2-5.8,2.2
			s-4.3-0.7-5.8-2.2c-1.5-1.4-2.2-3.3-2.2-5.6c0-2.3,0.7-4.2,2.2-5.7C324.2,75.1,326.2,74.4,328.6,74.4z M328.6,77.2
			c-1.4,0-2.5,0.5-3.4,1.4s-1.3,2.1-1.3,3.6s0.4,2.7,1.3,3.6s2,1.4,3.4,1.4s2.5-0.5,3.4-1.4s1.3-2.1,1.3-3.6s-0.4-2.7-1.3-3.6
			S330,77.2,328.6,77.2z"/>
	</g>
	<g>
		<path class="st1" d="M336.9,86.8c0.3-0.3,0.8-0.5,1.3-0.5s0.9,0.2,1.3,0.5c0.3,0.3,0.5,0.8,0.5,1.3s-0.2,1-0.5,1.3
			c-0.3,0.4-0.8,0.5-1.3,0.5s-0.9-0.2-1.3-0.5c-0.3-0.4-0.5-0.8-0.5-1.3S336.5,87.2,336.9,86.8z"/>
	</g>
</g>
</svg>
