<?xml version="1.0" encoding="utf-8"?>
<!-- Generator: Adobe Illustrator 24.0.0, SVG Export Plug-In . SVG Version: 6.00 Build 0)  -->
<svg version="1.1" id="Capa_1" xmlns="http://www.w3.org/2000/svg" xmlns:xlink="http://www.w3.org/1999/xlink" x="0px" y="0px"
	 viewBox="0 0 725.3 180.6" style="enable-background:new 0 0 725.3 180.6;" xml:space="preserve">
<g>
	<path d="M44.6,126.9v18.2h-10v-17c0-3-1.1-4.5-3.2-4.5c-2.8,0-4.2,1.9-4.2,5.6v15.9h-9.8v-17c0-2.9-1.1-4.5-3.2-4.5
		c-2.7,0-4.2,1.9-4.2,5.6v15.9H0v-29.1h7l1.4,3.1c2.1-2.4,5.2-4,8.5-4c3.5,0,6.5,1.6,8.3,4.3c2.1-2.6,5.3-4.3,8.9-4.3
		C40.5,115.2,44.6,120,44.6,126.9z"/>
	<path d="M89.2,116v29.1h-7.7l-0.9-2.1c-2.4,1.9-5.4,3-8.8,3c-8.9,0-15.3-6.5-15.3-15.5c0-9,6.4-15.4,15.3-15.4
		c3.4,0,6.5,1.1,8.9,3.1l1-2.2H89.2z M79.6,130.6c0-3.8-2.8-6.6-6.5-6.6c-3.8,0-6.5,2.8-6.5,6.6c0,3.8,2.8,6.6,6.5,6.6
		C76.9,137.2,79.6,134.4,79.6,130.6z"/>
	<path d="M133.2,116.1v39.6h-9.9v-11.5c-2.1,1.2-4.5,1.9-7.1,1.9c-8.9,0-15.3-6.5-15.3-15.5c0-9,6.3-15.5,15.3-15.5
		c3.5,0,6.5,1.2,8.9,3.3l1.3-2.3H133.2z M124,130.6c0-3.8-2.8-6.7-6.5-6.7c-3.8,0-6.5,2.9-6.5,6.7c0,3.8,2.8,6.7,6.5,6.7
		C121.3,137.3,124,134.4,124,130.6z"/>
	<path d="M145.1,132.7v-16.6h10v16.2c0,3.1,1.6,4.9,4.3,4.9c2.7,0,4.3-1.8,4.3-4.9v-16.2h10v16.6c0,8.1-5.7,13.4-14.3,13.4
		C150.9,146.1,145.1,140.8,145.1,132.7z"/>
	<path d="M185.8,116.1h10v29.1h-10V116.1z"/>
	<path d="M236.5,127.4v17.7h-10v-16.4c0-3.4-1.3-5.1-3.8-5.1c-3.1,0-4.9,2.2-4.9,5.9v15.5h-10v-29.1h7l1.4,3
		c2.2-2.4,5.4-3.9,9.2-3.9C232,115.2,236.5,120,236.5,127.4z"/>
	<path d="M281,116v29.1h-7.7l-0.9-2.1c-2.4,1.9-5.4,3-8.8,3c-8.9,0-15.3-6.5-15.3-15.5c0-9,6.4-15.4,15.3-15.4
		c3.4,0,6.5,1.1,8.9,3.1l1-2.2H281z M271.5,130.6c0-3.8-2.8-6.6-6.5-6.6c-3.8,0-6.5,2.8-6.5,6.6c0,3.8,2.8,6.6,6.5,6.6
		C268.7,137.2,271.5,134.4,271.5,130.6z"/>
	<polygon points="75.2,102.2 85.1,102.2 78.2,110.7 71.3,110.7 	"/>
	<rect x="185.8" y="102.2" width="10" height="8.5"/>
	<path d="M569.8,46.9v54.6c0,10.3-5.5,16.5-14.5,16.5c-8.9,0-14.3-5.9-14.6-15.8V46.9h0h-19.5h-3.4l-4.3,7.8
		c-8.1-7-18.5-11.1-30.1-11.1c-30.2,0-51.5,21.8-51.5,52.3c0,30.6,21.5,52.4,51.5,52.4c8.9,0,17-2.3,24-6.5v38.7h33.5v-34
		c4.4,1.1,9.3,1.7,14.6,1.7c29,0,48.4-17.9,48.4-45.4V46.9H569.8z M487.8,118.5c-12.6,0-22-9.6-22-22.5c0-12.8,9.3-22.5,22-22.5
		c12.7,0,22,9.7,22,22.5C509.8,108.9,500.5,118.5,487.8,118.5z"/>
	<path d="M381.9,46.9h33.9v98.3h-33.9V46.9z"/>
	<rect x="381.9" width="33.9" height="28.7"/>
	<path d="M337.9,0h25.8v116.1h-25.8V0z"/>
	<path d="M363.7,145.2h-64.5v-9.6h64.5V145.2z"/>
	<path d="M665.6,72.8h-33.2c1,5.1,4.3,7.8,9.1,7.8c3.6,0,6.6-1.6,8.1-4.2h15.3C661.8,86.6,652.7,93,641.5,93
		c-13.9,0-24.3-10.2-24.3-23.8c0-13.7,10.2-23.8,24.3-23.8c14.4,0,24.4,10.3,24.4,23.4C665.9,70.1,665.8,71.4,665.6,72.8z
		 M632.7,64.3h18.1c-1.4-4.5-4.6-6.9-9.2-6.9C637.1,57.4,633.9,59.8,632.7,64.3z"/>
	<path d="M725.3,64.8v27.9h-15.8V66.9c0-5.3-2-8-6-8c-4.9,0-7.7,3.4-7.7,9.3v24.5H680V46.9h11.1l2.2,4.7c3.4-3.8,8.5-6.1,14.4-6.1
		C718.3,45.5,725.3,53.1,725.3,64.8z"/>
</g>
</svg>
