<?xml version="1.0" encoding="utf-8"?>
<!-- Generator: Adobe Illustrator 22.0.1, SVG Export Plug-In . SVG Version: 6.00 Build 0)  -->
<svg version="1.1" id="Capa_1" xmlns="http://www.w3.org/2000/svg" xmlns:xlink="http://www.w3.org/1999/xlink" x="0px" y="0px"
	 viewBox="0 0 242.2 59.8" style="enable-background:new 0 0 242.2 59.8;" xml:space="preserve">
<style type="text/css">
	.st0{fill:#7EB19A;}
	.st1{fill:#FFFFFF;}
</style>
<path d="M103.9,29.5c0-16.2,13.2-29.5,29.5-29.5s29.5,13.2,29.5,29.5s-13.2,29.5-29.5,29.5C117.2,59.1,103.9,45.9,103.9,29.5z"/>
<path d="M0,29.4C0,13.2,13.2,0,29.5,0s29.5,13.2,29.5,29.5S45.9,59,29.5,59S0,45.8,0,29.4z"/>
<path d="M180.2,29.5c0-16.2,13.2-29.5,29.5-29.5s29.5,13.2,29.5,29.5s-13.1,29.5-29.5,29.5C193.5,59.1,180.2,45.8,180.2,29.5z"/>
<path class="st0" d="M59,49.4c0-5.3-4.2-9.6-9.6-9.6s-9.6,4.3-9.6,9.6c0,5.3,4.3,9.6,9.6,9.6l0,0H59V49.4L59,49.4L59,49.4z"/>
<g>
	<path class="st1" d="M38.4,17.3v17.5c0,2.8-0.9,4.9-2.8,6.7c-1.8,1.7-4.2,2.6-7.3,2.6c-2.9,0-5.5-0.9-8.1-2.6l1.8-3.1
		c1.9,1.4,4,2.2,6,2.2c1.9,0,3.3-0.5,4.4-1.5c1.1-1,1.7-2.4,1.7-4.1v-2.5c-1.4,2.2-3.6,3.3-6.4,3.3c-2.7,0-4.7-0.9-6.3-2.7
		c-1.7-1.8-2.4-4.1-2.4-6.8s0.8-4.9,2.4-6.7c1.7-1.7,3.7-2.6,6.2-2.6c3.1,0,5.1,1,6.5,3.3v-3.2L38.4,17.3L38.4,17.3z M28.8,32.5
		c1.7,0,3.1-0.5,4.1-1.7c1-1.1,1.5-2.6,1.5-4.2c0-1.8-0.5-3.2-1.5-4.2c-1-1.1-2.4-1.7-4.1-1.7c-1.7,0-3.1,0.5-4.1,1.7
		c-1,1.1-1.7,2.6-1.7,4.2c0,1.8,0.5,3.2,1.7,4.2C25.8,31.9,27.2,32.5,28.8,32.5z"/>
</g>
</svg>
